<svg id="Layer_1" xmlns="http://www.w3.org/2000/svg" viewBox="0 0 220 220"><style>.st0{fill:#df5b49}.st1{fill:#53c0ab}.st2{fill:#1e899e}.st3{fill:#f89e3d}.st4{fill:#ebe9d3}.st5{fill:#eec84c}.st6{fill:#454c51}</style><path class="st0" d="M162.9 192.4l4.2-4.2-8.5-5.4zM173 188.2l4.2 4.2 4.3-9.6z"/><path class="st1" d="M37 190.6l4.2-4.2-8.5-5.4zM47.2 186.4l4.2 4.2 4.3-9.6z"/><path class="st2" d="M76.9 25.6c-.5 0-4.9-.1-4.9-4.9 0-1.1-.9-2-2-2s-2 .9-2 2c0 .5-.1 4.9-4.9 4.9-1.1 0-2 .9-2 2s.9 2 2 2c.5 0 4.9.1 4.9 4.9 0 1.1.9 2 2 2s2-.9 2-2c0-.5.1-4.9 4.9-4.9 1.1 0 2-.9 2-2s-.8-2-2-2zM70 28.7c-.3-.4-.7-.8-1.1-1.1.4-.3.8-.7 1.1-1.1.3.4.7.8 1.1 1.1-.4.4-.8.7-1.1 1.1zM44.8 56.3c-.5 0-4.9-.1-4.9-4.9 0-1.1-.9-2-2-2s-2 .9-2 2c0 .5-.1 4.9-4.9 4.9-1.1 0-2 .9-2 2s.9 2 2 2c.5 0 4.9.1 4.9 4.9 0 1.1.9 2 2 2s2-.9 2-2c0-.5.1-4.9 4.9-4.9 1.1 0 2-.9 2-2s-.9-2-2-2zm-7 3.1c-.3-.4-.7-.8-1.1-1.1.4-.3.8-.7 1.1-1.1.3.4.7.8 1.1 1.1-.4.4-.8.7-1.1 1.1zM187.7 68.9c-.4 0-10.2-.1-10.2-10.2 0-1.4-1.1-2.5-2.5-2.5s-2.5 1.1-2.5 2.5c0 .4-.1 10.2-10.2 10.2-1.4 0-2.5 1.1-2.5 2.5s1.1 2.5 2.5 2.5c.4 0 10.2.1 10.2 10.2 0 1.4 1.1 2.5 2.5 2.5s2.5-1.1 2.5-2.5c0-.4.1-10.2 10.2-10.2 1.4 0 2.5-1.1 2.5-2.5s-1.1-2.5-2.5-2.5zm-12.6 6.4c-1.1-1.6-2.5-2.9-4-3.8 1.6-1.1 2.9-2.5 3.8-4 1.1 1.6 2.5 2.9 4 3.8-1.6 1.1-2.8 2.5-3.8 4z"/><path class="st3" d="M42.9 103.5h-1.4c-9.9.4-19 5.3-24.8 13.3h.6c.6.1 1.3.1 1.9.1 6.1 0 11.8-2.3 16.1-6.6l1.4-1.3.9 1.7c4 7.6 11.8 12.3 20.4 12.3 4.6 0 8.9-1.3 12.7-3.8-5.9-9.6-16.4-15.7-27.8-15.7z"/><g><path class="st4" d="M58 126c-9 0-17.3-4.7-22-12.3-4.7 4-10.6 6.1-16.8 6.1-1.2 0-2.4-.1-3.6-.3-2.8 4.8-4.4 10.3-4.4 16.2 0 14.3 9.4 26.5 22.3 30.7.6.2 1.3.4 1.9.6 2.6.7 5.3 1 8 1 17.8 0 32.3-14.5 32.3-32.3 0-5.1-1.2-9.9-3.3-14.2-4.2 3-9.2 4.5-14.4 4.5zm-19 12.3h-2.8v-1.4c0-2.6-2.1-4.7-4.7-4.7s-4.7 2.1-4.7 4.7v1.4H24v-1.4c0-4.2 3.4-7.5 7.5-7.5s7.5 3.4 7.5 7.5v1.4zm22.4 0h-2.8v-1.4c0-2.6-2.1-4.7-4.7-4.7s-4.7 2.1-4.7 4.7v1.4h-2.8v-1.4c0-4.2 3.4-7.5 7.5-7.5s7.5 3.4 7.5 7.5v1.4zM199.8 121.5c-4.3 2.8-9.2 4.2-14.3 4.2-9.2 0-17.7-4.8-22.5-12.5-4.8 4.1-10.8 6.3-17.1 6.3-1.4 0-2.9-.1-4.3-.4-2.9 4.9-4.5 10.6-4.5 16.7 0 14.8 9.9 27.4 23.4 31.5.9.3 1.8.5 2.8.7 2.2.5 4.5.7 6.8.7 2.4 0 4.8-.3 7.1-.8.9-.2 1.8-.4 2.7-.7 13.4-4.2 23.2-16.7 23.2-31.5-.1-5-1.3-9.8-3.3-14.2zm-33.7 16.8h-2.8v-1.4c0-2.7-2.2-4.8-4.8-4.8s-4.8 2.2-4.8 4.8v1.4h-2.8v-1.4c0-4.2 3.4-7.7 7.7-7.7 4.2 0 7.7 3.4 7.7 7.7v1.4zm22.9 0h-2.8v-1.4c0-2.7-2.2-4.8-4.8-4.8-2.7 0-4.8 2.2-4.8 4.8v1.4h-2.8v-1.4c0-4.2 3.4-7.7 7.7-7.7 4.2 0 7.7 3.4 7.7 7.7v1.4z"/></g><g><path class="st5" d="M106.8 37.4c-15.2 0-27.5 12.3-27.5 27.5 0 10.9 6.5 20.8 16.5 25.2.5.2.9.7.9 1.3v8.2H117v-8.2c0-.6.3-1.1.9-1.3 10-4.4 16.5-14.3 16.5-25.2-.2-15.2-12.5-27.5-27.6-27.5zm14.7 24.4l-14.2 32.8c-.2.5-.7.9-1.3.9h-.3c-.7-.1-1.1-.7-1.1-1.4V77.2H93.3c-.5 0-.9-.2-1.2-.6s-.3-.9-.1-1.3l14.2-32.8c.3-.6.9-1 1.6-.8.7.1 1.1.7 1.1 1.4v16.8h11.3c.5 0 .9.2 1.2.6.3.3.3.9.1 1.3zM106.8 115.5c2.7 0 5-1.9 5.6-4.4h-11.3c.7 2.5 2.9 4.4 5.7 4.4zM198.4 119c-2.8-4.7-6.6-8.5-11.1-11.3-.1-.1-.2-.1-.3-.2-.4-.2-.7-.4-1.1-.6l-.6-.3c-.3-.2-.7-.3-1-.5-.5-.2-1-.5-1.5-.7-.2-.1-.4-.2-.7-.3-.4-.2-.8-.3-1.2-.4-.2-.1-.4-.1-.6-.2-.5-.2-.9-.3-1.4-.4-.1 0-.3-.1-.4-.1-.6-.2-1.3-.3-1.9-.4h-.3c-.6-.1-1.1-.2-1.7-.3-.2 0-.4 0-.6-.1-.5-.1-1-.1-1.5-.1h-.6c-.7 0-1.3-.1-2-.1-.6 0-1.2 0-1.8.1-.2 0-.5 0-.7.1-.4 0-.7.1-1.1.1-.3 0-.6.1-.9.1-.3 0-.6.1-.8.1-.4.1-.7.1-1.1.2-.2 0-.4.1-.5.1-7.9 1.7-15 6.2-19.8 12.9.8.1 1.7.1 2.5.1 6.2 0 12-2.4 16.5-6.7l1.4-1.3.9 1.7c4.1 7.8 12.1 12.6 20.9 12.6 4.7-.2 9.2-1.5 13-4.1zM136 146.9c-1.6 1-3.1 2.2-4.3 3.7-4.2 5-5.3 11.7-2.9 17.8 6.4 1.3 12.8-.9 17-5.9l.2-.2c-4.7-4.2-8.1-9.4-10-15.4zM209 150.6c-1.2-1.5-2.7-2.7-4.3-3.7-1.9 5.9-5.4 11.2-10 15.4l.2.2c4.2 5 10.6 7.2 17 5.9 2.4-6 1.3-12.8-2.9-17.8z"/></g><g><path class="st6" d="M137.1 64.9c0-16.7-13.6-30.3-30.3-30.3-16.7 0-30.3 13.6-30.3 30.3 0 11.7 6.8 22.4 17.3 27.4v8.7c0 .8.6 1.4 1.4 1.4h23.1c.8 0 1.4-.6 1.4-1.4v-8.7c10.6-5 17.4-15.7 17.4-27.4zm-20.2 26.5v8.2H96.6v-8.2c0-.6-.3-1.1-.9-1.3-10-4.4-16.5-14.3-16.5-25.2 0-15.2 12.3-27.5 27.5-27.5s27.5 12.3 27.5 27.5c0 10.9-6.5 20.8-16.5 25.2-.5.2-.8.7-.8 1.3zM95.2 103.9h23.1v2.8H95.2zM114 108.3H99.5c-.8 0-1.4.6-1.4 1.4 0 4.8 3.9 8.6 8.6 8.6 4.8 0 8.6-3.9 8.6-8.6.1-.8-.5-1.4-1.3-1.4zm-7.2 7.2c-2.7 0-5-1.9-5.6-4.4h11.3c-.8 2.5-3 4.4-5.7 4.4z"/><path class="st6" d="M120.2 59.8h-11.3V43c0-.7-.5-1.3-1.1-1.4-.7-.1-1.3.2-1.6.8L92 75.2c-.2.4-.1.9.1 1.3s.7.6 1.2.6h11.3V94c0 .7.5 1.3 1.1 1.4h.3c.6 0 1.1-.3 1.3-.9l14.2-32.8c.2-.4.1-.9-.1-1.3s-.7-.6-1.2-.6zm-12.8 27.3V75.8c0-.8-.6-1.4-1.4-1.4H95.5l10.6-24.5v11.4c0 .8.6 1.4 1.4 1.4h10.6l-10.7 24.4zM73.9 177.2H60.6l-4.2-8.7c13-5.2 22.2-17.8 22.2-32.7 0-19.4-15.8-35.1-35.1-35.1-.8 0-1.5 0-2.2.1-11.5.5-22 6.6-28.2 16.5L12 119l.6.1c-2.7 5-4.2 10.7-4.2 16.7 0 15.4 9.9 28.4 23.7 33.2l-3.6 7.4c-.2.2-.3.4-.3.6l-.1.1H16.3c-7.2 0-13.1 5.9-13.1 13.1v11.6c0 .8.6 1.4 1.4 1.4s1.4-.6 1.4-1.4v-11.6c0-5.6 4.6-10.2 10.3-10.2H29.1l6.1 13.7c.2.4.6.7 1 .8h.3c.4 0 .7-.1 1-.4l6.6-6.6 6.6 6.6c.3.3.6.4 1 .4h.3c.5-.1.8-.4 1-.8l6.2-13.7c.1 0 .3.1.4.1h14.1c5.7 0 10.3 4.6 10.3 10.2v11.6c0 .8.6 1.4 1.4 1.4.8 0 1.4-.6 1.4-1.4v-11.6c.2-7.3-5.7-13.1-12.9-13.1zm-26.7 9.2l8.5-5.4-4.3 9.6-4.2-4.2zm-4.3-82.9c11.4 0 22 6 27.8 15.8-3.8 2.5-8.1 3.8-12.7 3.8-8.6 0-16.4-4.7-20.4-12.3l-.9-1.7-1.4 1.3c-4.3 4.2-10.1 6.6-16.1 6.6-.6 0-1.3 0-1.9-.1h-.6c5.8-8 14.8-12.9 24.8-13.3.4 0 .9-.1 1.4-.1zm-27.3 16.1c1.2.2 2.4.3 3.6.3 6.2 0 12.1-2.2 16.8-6.1 4.7 7.6 13 12.3 22 12.3 5.2 0 10.2-1.5 14.5-4.4 2.1 4.3 3.3 9.1 3.3 14.2 0 17.8-14.5 32.3-32.3 32.3-2.8 0-5.5-.4-8-1l-1.9-.6c-12.9-4.2-22.3-16.4-22.3-30.7-.1-6 1.5-11.5 4.3-16.3zm19.2 50.2c2.8.7 5.7 1.1 8.7 1.1 3.5 0 7-.5 10.2-1.5l3.5 7.3-13 8.3-12.8-8.2 3.4-7zm2.2 20.8l-4.3-9.6 8.5 5.4-4.2 4.2z"/><path class="st6" d="M49.2 136.8c0-2.6 2.1-4.7 4.7-4.7s4.7 2.1 4.7 4.7v1.4h2.8v-1.4c0-4.2-3.4-7.5-7.5-7.5s-7.5 3.4-7.5 7.5v1.4h2.8v-1.4zM26.7 136.8c0-2.6 2.1-4.7 4.7-4.7s4.7 2.1 4.7 4.7v1.4H39v-1.4c0-4.2-3.4-7.5-7.5-7.5s-7.5 3.4-7.5 7.5v1.4h2.8v-1.4zM211.2 148.8c-1.8-2.1-3.9-3.8-6.3-5 .6-2.6.9-5.3.9-8 0-5.7-1.4-11.1-3.7-15.9l-.6-1.1c-.2-.4-.5-.8-.7-1.2-.1-.1-.1-.2-.2-.4-.3-.4-.5-.9-.8-1.3-.1-.1-.1-.2-.2-.3-2.2-3.3-5-6.1-8.1-8.5l-.1-.1c-1.2-.9-2.5-1.7-3.8-2.5-.2-.1-.5-.3-.7-.4-.3-.2-.7-.3-1-.5-.4-.2-.7-.3-1.1-.5-.2-.1-.5-.2-.7-.3-.6-.3-1.2-.5-1.9-.7-.2-.1-.4-.1-.6-.2-.5-.2-1-.3-1.5-.5-.2-.1-.4-.1-.6-.2-1.4-.4-2.8-.7-4.3-.9-.2 0-.4 0-.5-.1-.6-.1-1.1-.1-1.7-.2h-.6c-.7 0-1.5-.1-2.2-.1-.7 0-1.4 0-2.1.1-.2 0-.5 0-.7.1-.4 0-.9.1-1.3.1-.3 0-.6.1-.9.1-.3 0-.7.1-1 .2-.4.1-.7.1-1.1.2-.1 0-.3.1-.4.1-1 .2-2 .5-3 .8-.2.1-.4.1-.6.2-.8.3-1.5.5-2.3.8-.4.2-.8.4-1.3.5-.5.2-1.1.5-1.6.8-.6.3-1.1.6-1.7.9-.4.2-.8.5-1.2.7-.6.4-1.2.8-1.7 1.2-.4.3-.7.5-1.1.8-.5.4-1 .8-1.4 1.2-.4.4-.9.8-1.3 1.2-.3.3-.6.6-1 .9-.6.6-1.1 1.2-1.7 1.8-.1.2-.3.3-.4.5-.7.8-1.3 1.7-2 2.6-.1.1-.1.2-.2.2l-.6.9-1.1 1.7h.1c-2.8 5.1-4.4 11-4.4 17.2 0 2.9.3 5.6 1 8.3-2.2 1.2-4.1 2.8-5.7 4.7-5 6-6.2 14.2-3 21.4l.3.6.7.2c1.7.4 3.3.6 5 .6 5.9 0 11.6-2.6 15.5-7.3l.2-.2c3.3 2.5 7 4.5 11 5.8l-3.5 7.2h-9.9c-7.2 0-13.1 5.9-13.1 13.1v11.6c0 .8.6 1.4 1.4 1.4s1.4-.6 1.4-1.4v-11.6c0-5.6 4.6-10.2 10.3-10.2h8.4l6.9 15.4c.2.4.6.7 1 .8h.3c.4 0 .7-.1 1-.4l6.6-6.6 6.6 6.6c.3.3.6.4 1 .4h.3c.5-.1.8-.4 1-.8l6.9-15.4H196c5.7 0 10.3 4.6 10.3 10.2v11.6c0 .8.6 1.4 1.4 1.4.8 0 1.4-.6 1.4-1.4v-11.6c0-7.2-5.9-13.1-13.1-13.1h-11.5l-3.6-7.3c4.1-1.3 7.9-3.4 11.2-6 .1.2.3.4.4.5 3.9 4.7 9.6 7.3 15.5 7.3 1.7 0 3.3-.2 5-.6l.7-.2.3-.6c3.4-7.1 2.3-15.3-2.8-21.3zm-16.3 13.7l-.2-.2c4.6-4.2 8.1-9.5 10-15.4 1.6 1 3.1 2.2 4.3 3.7 4.2 5 5.3 11.7 2.9 17.8-6.4 1.3-12.8-.9-17-5.9zm-17.8 5.5c-2.3.5-4.6.8-7.1.8-2.3 0-4.6-.3-6.8-.7-.9-.2-1.9-.4-2.8-.7-13.5-4.1-23.4-16.7-23.4-31.5 0-6.1 1.7-11.8 4.5-16.7 1.4.2 2.8.4 4.3.4 6.3 0 12.3-2.2 17.1-6.3 4.8 7.8 13.3 12.5 22.5 12.5 5.1 0 10-1.5 14.3-4.2 2.1 4.3 3.2 9.2 3.2 14.3 0 14.8-9.8 27.3-23.2 31.5-.8.2-1.7.4-2.6.6zm-31.3-5.5c-4.2 5-10.6 7.2-17 5.9-2.4-6-1.3-12.8 2.9-17.8 1.2-1.5 2.7-2.7 4.3-3.7 1.9 5.9 5.3 11.2 10 15.4-.1.1-.1.2-.2.2zm24.2-59.7c.7 0 1.3 0 2 .1h.6c.5 0 1 .1 1.5.1.2 0 .4 0 .6.1.6.1 1.1.2 1.7.3h.3c.6.1 1.3.3 1.9.4.1 0 .3.1.4.1.5.1.9.3 1.4.4.2.1.4.1.6.2.4.1.8.3 1.2.4.2.1.5.2.7.3.5.2 1 .4 1.5.7.3.2.7.3 1 .5l.6.3c.4.2.7.4 1.1.6.1.1.2.1.3.2 4.5 2.8 8.3 6.6 11.1 11.3-3.8 2.5-8.3 3.9-12.9 3.9-8.8 0-16.8-4.8-20.9-12.6l-.9-1.7-1.4 1.3c-4.4 4.3-10.3 6.7-16.5 6.7-.9 0-1.7 0-2.5-.1 4.8-6.7 11.9-11.2 19.8-12.9.2 0 .4-.1.5-.1.3-.1.7-.1 1.1-.2.3 0 .6-.1.8-.1.3 0 .6-.1.9-.1.4 0 .7-.1 1.1-.1.2 0 .5 0 .7-.1.5.2 1.1.1 1.7.1zm-7.1 89.6l-4.3-9.6 8.5 5.4-4.2 4.2zm10.1-4.2l8.5-5.4-4.3 9.6-4.2-4.2zm9.3-9.3l-12.3 7.8-12.1-7.7 4.1-8.4c2.6.6 5.3.9 8.1.9s5.6-.3 8.3-1l3.9 8.4z"/><path class="st6" d="M181.3 129.2c-4.2 0-7.7 3.4-7.7 7.7v1.4h2.8v-1.4c0-2.7 2.2-4.8 4.8-4.8 2.7 0 4.8 2.2 4.8 4.8v1.4h2.8v-1.4c.2-4.3-3.3-7.7-7.5-7.7zM158.4 129.2c-4.2 0-7.7 3.4-7.7 7.7v1.4h2.8v-1.4c0-2.7 2.2-4.8 4.8-4.8s4.8 2.2 4.8 4.8v1.4h2.8v-1.4c.2-4.3-3.3-7.7-7.5-7.7z"/></g></svg>