<svg id="Layer_1" xmlns="http://www.w3.org/2000/svg" viewBox="0 0 220 220"><style>.st0{fill:#eec84c}.st1{fill:#f89e3d}.st2{fill:#454c51}</style><path class="st0" d="M125.5 50.7l13.7-10.1-16.4-4.7c-.5-.1-.9-.5-1-1l-5.4-16.2-9.6 14.1c-.3.4-.7.7-1.2.7l-17.1.1L99 47.1c.3.4.4.9.2 1.4L94 64.8l16-5.8c.2-.1.3-.1.5-.1.3 0 .6.1.9.3l13.9 9.9-.4-17.1c0-.5.2-1 .6-1.3zM45.5 197.3l41.1 6.5V107l-41.1-6.5v96.8zm13-35.4c.3-2.7.9-4.6 1-4.7.2-.8 1.1-1.2 1.9-1 .8.2 1.2 1.1 1 1.9 0 0-.5 1.8-.8 4.2-.1.8-.7 1.3-1.5 1.3h-.2c-.9-.2-1.5-.9-1.4-1.7zm17.3 10.6c1.5-.8 3-1.7 4.5-2.6 1.1-.7 2.2-1.3 3.4-1.9.7-.4 1.6-.1 2.1.6.4.7.1 1.6-.6 2.1-1.1.6-2.2 1.3-3.3 1.9-1.5.9-3.1 1.8-4.7 2.6-.2.1-.5.2-.7.2-.5 0-1.1-.3-1.3-.8-.4-.8-.1-1.7.6-2.1zm-6.4 3.8c-.1.8-.7 1.3-1.5 1.3h-.2c-.8-.1-1.5-.3-2.2-.5-2.8-1-4.8-2.9-6-5.6-.3-.8 0-1.7.8-2 .8-.3 1.7 0 2 .8.9 1.9 2.2 3.2 4.2 3.9.5.2 1 .3 1.5.3.9.3 1.5 1 1.4 1.8zm-14.5-32.9c-.6-.6-.6-1.5 0-2.1.6-.6 1.5-.6 2.1 0l3.8 3.8 3.8-3.8c.6-.6 1.5-.6 2.1 0 .6.6.6 1.5 0 2.1l-3.8 3.8 3.8 3.8c.6.6.6 1.5 0 2.1-.3.3-.7.4-1.1.4-.4 0-.8-.1-1.1-.4l-3.8-3.8-3.8 3.8c-.3.3-.7.4-1.1.4s-.8-.1-1.1-.4c-.6-.6-.6-1.5 0-2.1l3.8-3.8-3.6-3.8zM133.7 100.5v96.9l41.1 6.5v-96.8l-41.1-6.6zm16.1 15.9c-.6-.6-.6-1.5 0-2.1.6-.6 1.5-.6 2.1 0l3.8 3.8 3.8-3.8c.6-.6 1.5-.6 2.1 0 .6.6.6 1.5 0 2.1l-3.8 3.8 3.8 3.8c.6.6.6 1.5 0 2.1-.3.3-.7.4-1.1.4-.4 0-.8-.1-1.1-.4l-3.8-3.8-3.8 3.8c-.3.3-.7.4-1.1.4s-.8-.1-1.1-.4c-.6-.6-.6-1.5 0-2.1l3.8-3.8-3.6-3.8zm-2.4 15.1c.3-.8 1.2-1.1 2-.8.8.3 1.1 1.2.8 2-.1.1-.1.3-.2.4-.5 1.2-1 2.5-1.3 3.6-.2.7-.8 1.1-1.5 1.1-.1 0-.3 0-.4-.1-.8-.2-1.3-1.1-1-1.9.3-1.2.8-2.4 1.3-3.6.1-.1.2-.4.3-.7zm-1.9 53.3h-.2c-3-.3-6.2-1.1-9.7-2.1-.8-.2-1.2-1.1-1-1.9.2-.8 1.1-1.2 1.9-1 3.3 1 6.3 1.7 9.1 2 .8.1 1.4.8 1.3 1.7 0 .7-.6 1.3-1.4 1.3zm6.5-29.2c-.3.2-.6.4-1 .4s-.8-.2-1.1-.5c-1-1.2-1.9-2.4-2.6-3.6-.7-1.3-1.3-2.6-1.7-3.9-.2-.5-.3-1.1-.4-1.6-.2-.8.4-1.6 1.2-1.8.8-.2 1.6.4 1.8 1.2.3 1.3.7 2.5 1.3 3.7.7 1.3 1.5 2.6 2.6 3.9 0 .1.1.1.1.2.5.5.5 1.4-.2 2zm12.1 22.6c-2 3-4.9 5-8.6 6-.1 0-.3.1-.4.1-.7 0-1.3-.4-1.5-1.1-.2-.8.2-1.6 1-1.9 3-.8 5.3-2.4 6.9-4.8.5-.7 1.4-.9 2.1-.4.8.5.9 1.4.5 2.1zm.9-8.6c-.2.1-.4.1-.6.1-.6 0-1.1-.3-1.4-.9-1-2.3-3.3-4.5-5.9-6.7-.6-.5-.7-1.5-.2-2.1.5-.6 1.5-.7 2.1-.2 2.8 2.4 5.5 4.9 6.7 7.8.4.8 0 1.7-.7 2z"/><path class="st1" d="M120.6 102l-3 .5-8.6 1.4-3 .5-4.8.8-3.1.5-8.5 1.3v96.8l41.1-6.5V100.5l-10.1 1.5zm-21.9 65.8c-.3.5-.8.8-1.3.8-.2 0-.5-.1-.7-.2-1.1-.6-2.3-.8-3.6-.7-.8 0-1.5-.6-1.6-1.4-.1-.8.6-1.5 1.4-1.6 1.8-.1 3.6.2 5.2 1 .7.4 1 1.3.6 2.1zm19.2 11.8c.6.6.6 1.5 0 2.1-.3.3-.7.4-1.1.4-.4 0-.8-.1-1.1-.4l-3.8-3.8-3.8 3.8c-.3.3-.7.4-1.1.4-.4 0-.8-.1-1.1-.4-.6-.6-.6-1.5 0-2.1l3.8-3.8-3.8-3.8c-.6-.6-.6-1.5 0-2.1.6-.6 1.5-.6 2.1 0l3.8 3.8 3.8-3.8c.6-.6 1.5-.6 2.1 0 .6.6.6 1.5 0 2.1l-3.8 3.8 4 3.8zm10.6-1.3c-.3.6-.8.9-1.4.9-.2 0-.4 0-.6-.1-2.5-1.1-4.1-2-4.2-2-.7-.4-1-1.3-.6-2s1.3-1 2-.6c0 0 1.5.8 4 1.9.8.3 1.1 1.2.8 1.9z"/><g><path class="st2" d="M96.2 48.3l-5.8 18.4c-.2.5 0 1.1.4 1.5.4.4 1 .5 1.6.3l18.2-6.6 15.7 11.2c.3.2.6.3.9.3.2 0 .5-.1.7-.2.5-.3.8-.8.8-1.4l-.7-19.1 15.6-11.5c.5-.3.7-.9.6-1.5-.1-.6-.5-1-1.1-1.2l-18.6-5.4-6.1-18.3c-.2-.5-.7-.9-1.2-1-.6-.1-1.1.2-1.5.6l-10.8 16-19.3.1c-.6 0-1.1.3-1.3.9-.3.5-.2 1.1.2 1.6l11.7 15.3zm9.5-14.8c.5 0 1-.3 1.2-.7l9.6-14.1 5.4 16.2c.2.5.5.8 1 1l16.4 4.7-13.7 10.1c-.4.3-.6.8-.6 1.3l.6 17.1-13.9-9.9c-.3-.2-.6-.3-.9-.3-.2 0-.3 0-.5.1l-16 5.8 5.2-16.3c.2-.5.1-1-.2-1.4L88.6 33.6l17.1-.1z"/><path class="st2" d="M176.5 104.2l-44.1-7h-.4l-12.2 1.9c-1.7-6.1-2.1-12.7-1-19.2.3-1.8.7-3.6 1.2-5.3.2-.8-.2-1.6-1-1.9-.8-.2-1.6.2-1.9 1-.6 1.9-1 3.9-1.3 5.8-1.1 6.9-.7 13.7 1 20.1l-8.3 1.3c-1.3-7.4-1.2-15 .2-22.4.4-2 .9-4 1.5-6 .2-.8-.2-1.6-1-1.9-.8-.2-1.6.2-1.9 1-.6 2.1-1.1 4.3-1.6 6.4-1.5 7.8-1.5 15.6-.2 23.3l-5.4.9c-3-8-3.6-16.7-1.7-25.2.2-1 .5-2 .8-3 .2-.8-.2-1.6-1-1.9-.8-.2-1.6.2-1.9 1-.3 1.1-.6 2.3-.9 3.4-1.9 8.9-1.2 17.9 1.7 26.1l-8.9 1.4-43.9-6.9c-.4-.1-.9.1-1.2.3-.3.3-.5.7-.5 1.1v99.9c0 .7.5 1.4 1.3 1.5l44.1 7h.4l43.9-6.9 43.9 6.9h.2c.4 0 .7-.1 1-.4.3-.3.5-.7.5-1.1v-99.9c-.1-.6-.6-1.2-1.4-1.3zm-89.9 99.5l-41.1-6.5v-96.8l41.1 6.5v96.8zm44.1-85.3v78.9l-41.1 6.5V107l8.5-1.3 3.1-.5 4.8-.8 3-.5 8.6-1.4 3-.5 10.1-1.6v18zm44.1 85.3l-41.1-6.5v-96.9l41.1 6.5v96.9z"/><path class="st2" d="M149.8 126.2c.3.3.7.4 1.1.4s.8-.1 1.1-.4l3.8-3.8 3.8 3.8c.3.3.7.4 1.1.4.4 0 .8-.1 1.1-.4.6-.6.6-1.5 0-2.1l-3.8-3.8 3.8-3.8c.6-.6.6-1.5 0-2.1-.6-.6-1.5-.6-2.1 0l-3.8 3.8-3.8-3.8c-.6-.6-1.5-.6-2.1 0-.6.6-.6 1.5 0 2.1l3.8 3.8-3.8 3.8c-.8.5-.8 1.5-.2 2.1zM54.9 153.2c.3.3.7.4 1.1.4s.8-.1 1.1-.4l3.8-3.8 3.8 3.8c.3.3.7.4 1.1.4.4 0 .8-.1 1.1-.4.6-.6.6-1.5 0-2.1l-3.8-3.8 3.8-3.8c.6-.6.6-1.5 0-2.1-.6-.6-1.5-.6-2.1 0l-3.8 3.8-3.8-3.8c-.6-.6-1.5-.6-2.1 0-.6.6-.6 1.5 0 2.1l3.8 3.8-3.8 3.8c-.8.6-.8 1.5-.2 2.1zM117.9 169.8c-.6-.6-1.5-.6-2.1 0l-3.8 3.8-3.8-3.8c-.6-.6-1.5-.6-2.1 0-.6.6-.6 1.5 0 2.1l3.8 3.8-3.8 3.8c-.6.6-.6 1.5 0 2.1.3.3.7.4 1.1.4.4 0 .8-.1 1.1-.4l3.8-3.8 3.8 3.8c.3.3.7.4 1.1.4.4 0 .8-.1 1.1-.4.6-.6.6-1.5 0-2.1l-3.8-3.8 3.8-3.8c.4-.6.4-1.5-.2-2.1zM60 163.5c.8 0 1.4-.6 1.5-1.3.3-2.4.8-4.1.8-4.2.2-.8-.2-1.6-1-1.9-.8-.3-1.6.2-1.9 1 0 .1-.6 2-1 4.7-.1.8.5 1.6 1.3 1.7h.3zM76.5 175.4c.2 0 .5-.1.7-.2 1.6-.8 3.1-1.7 4.7-2.6 1.1-.7 2.2-1.3 3.3-1.9.7-.4 1-1.3.6-2.1-.4-.7-1.3-1-2.1-.6-1.1.6-2.2 1.3-3.4 1.9-1.5.9-3 1.8-4.5 2.6-.7.4-1 1.3-.6 2 .3.6.8.9 1.3.9zM62.3 170.4c-.3-.8-1.2-1.1-2-.8-.8.3-1.1 1.2-.8 2 1.2 2.7 3.2 4.6 6 5.6.7.3 1.5.4 2.2.5h.2c.8 0 1.4-.6 1.5-1.3.1-.8-.5-1.6-1.3-1.7l-1.5-.3c-2.1-.8-3.5-2.1-4.3-4zM98 165.8c-1.6-.8-3.3-1.1-5.2-1-.8.1-1.5.8-1.4 1.6 0 .8.8 1.4 1.6 1.4 1.3-.1 2.5.2 3.6.7.2.1.5.2.7.2.6 0 1.1-.3 1.3-.8.5-.9.2-1.8-.6-2.1zM122.3 177.1c.1 0 1.6.9 4.2 2 .2.1.4.1.6.1.6 0 1.1-.3 1.4-.9.3-.8 0-1.7-.8-2-2.4-1.1-4-1.9-4-1.9-.7-.4-1.6-.1-2 .6-.4.7-.1 1.7.6 2.1zM145.6 147.9c.4 1.3 1 2.6 1.7 3.9.7 1.2 1.6 2.4 2.6 3.6.3.3.7.5 1.1.5.3 0 .7-.1 1-.4.6-.5.7-1.5.2-2.1 0-.1-.1-.1-.1-.2-1.1-1.3-1.9-2.6-2.6-3.9-.6-1.2-1.1-2.4-1.3-3.7-.2-.8-1-1.3-1.8-1.2-.8.2-1.3 1-1.2 1.8.1.6.3 1.2.4 1.7zM159.1 159.9c-.6-.5-1.6-.5-2.1.2-.5.6-.5 1.6.2 2.1 2.5 2.2 4.9 4.3 5.9 6.7.2.6.8.9 1.4.9.2 0 .4 0 .6-.1.8-.3 1.1-1.2.8-2-1.4-3-4-5.4-6.8-7.8zM135.6 182.6c3.5 1.1 6.7 1.8 9.7 2.1h.2c.8 0 1.4-.6 1.5-1.3.1-.8-.5-1.6-1.3-1.7-2.8-.3-5.9-1-9.1-2-.8-.2-1.6.2-1.9 1-.3.8.1 1.7.9 1.9zM161.6 176.5c-1.6 2.4-3.9 4-6.9 4.8-.8.2-1.3 1.1-1 1.9.2.7.8 1.1 1.5 1.1.1 0 .3 0 .4-.1 3.7-1 6.6-3 8.6-6 .5-.7.3-1.6-.4-2.1-.8-.5-1.8-.3-2.2.4zM146.8 137.8c.1 0 .3.1.4.1.7 0 1.3-.4 1.5-1.1.3-1.2.8-2.4 1.3-3.6.1-.1.1-.3.2-.4.3-.8 0-1.7-.8-2-.8-.3-1.7 0-2 .8l-.3.9c-.5 1.2-.9 2.4-1.3 3.6-.2.7.2 1.5 1 1.7z"/></g></svg>