<svg xmlns="http://www.w3.org/2000/svg" viewBox="0 0 800 170"><path fill="#F99E3E" d="M124.3 65c-15.9-15.9-41.8-15.9-57.8 0l-7.3 7.2c-1.9 1.9-5 1.9-6.9 0-1.9-1.9-1.9-4.9 0-6.8l20.3-20.2 4.3-29.5-29.6 3.8L27 40c-7.7 7.7-12 17.9-12 28.8 0 10.9 4.2 21.1 12 28.8 15.9 15.9 41.8 15.9 57.8 0l7.3-7.2c1.9-1.9 5-1.9 6.9 0 .9.9 1.4 2.1 1.4 3.4s-.5 2.5-1.4 3.4l-14.3 14.2-2.5 2.5-15.2 15 25.5 25.4 11.8-11.7 5.8-5.8 14.3-14.2c15.8-15.9 15.8-41.8-.1-57.6zM49.7 24l15.5-2 5.4 5.3L68.3 43 63 48.3v-4h-7.4V37h-7.4v-7.3h-4l5.5-5.7zm1.1 17.6v4l-9.1 9.1c-3.8 3.8-5.9 8.8-5.9 14.1 0 5.3 2.1 10.3 5.9 14.1 7.8 7.8 20.5 7.8 28.3 0l7.3-7.2c10-10 26.3-10 36.3 0 4.9 4.8 7.5 11.3 7.5 18.1 0 6.8-2.7 13.3-7.5 18.1l-16.7 16.7-2-2-2-2 16.7-16.7c3.8-3.8 5.9-8.8 5.9-14.1 0-5.3-2.1-10.3-5.9-14.1-7.8-7.8-20.5-7.8-28.3 0L74 86.9c-5 5-11.6 7.5-18.2 7.5s-13.2-2.5-18.2-7.5c-4.9-4.8-7.5-11.3-7.5-18.1 0-6.8 2.7-13.3 7.5-18.1l9.1-9.1h4.1zm37.1 73.1l14.3-14.2c1.8-1.8 2.8-4.2 2.8-6.8s-1-5-2.8-6.8c-3.7-3.7-9.8-3.7-13.6 0l-7.3 7.2c-14.1 14-37 14-51.1 0-6.8-6.8-10.6-15.8-10.6-25.4 0-9.6 3.8-18.6 10.6-25.4l9.1-9.1h4v4l-9.1 9c-5.7 5.7-8.9 13.3-8.9 21.4 0 8.1 3.2 15.7 8.9 21.4 11.9 11.8 31.2 11.8 43 0l7.3-7.2c6-5.9 15.6-5.9 21.6 0 2.9 2.9 4.5 6.7 4.5 10.8 0 4.1-1.6 7.9-4.5 10.8l-16.7 16.7-4-4 2.5-2.4zm4.6 32.9l-18.7-18.7 8.4-8.4 9.4 9.3 9.4 9.3-8.5 8.5zm28.4-28.4l-14.3 14.2-2.5 2.5-4-4 16.7-16.7c5.7-5.7 8.9-13.3 8.9-21.4s-3.2-15.7-8.9-21.4c-11.9-11.8-31.2-11.8-43 0l-7.3 7.2c-6 5.9-15.6 5.9-21.6 0-2.9-2.9-4.5-6.7-4.5-10.8 0-4.1 1.6-7.9 4.5-10.8l9.1-9.1h4.1v4l-9 9.1c-3.7 3.7-3.7 9.8 0 13.5 3.7 3.7 9.8 3.7 13.6 0l7.3-7.2c14.1-14 37-14 51.1 0 13.9 14 13.9 36.9-.2 50.9z"/><g fill="#96A0A5"><path d="M168.3 99.1l6.6-5.4c4 5 9.4 8.4 16.3 8.4 8.1 0 12.2-4.3 12.2-9.3 0-5.7-7.1-6.8-14.6-8.6-8.7-2.1-18-4.9-18-15.5 0-8 7.6-15.7 19.7-15.7 8 0 15.9 2.9 20.6 8.3l-6.2 5.2c-3.7-4.1-8.3-6.4-14.4-6.4-7.5 0-11.5 3.9-11.5 8.4 0 5.5 6.8 6.8 14.2 8.6 8.8 2.1 18.4 4.8 18.4 15.6 0 6.9-5.7 16.7-20.8 16.7-9.3.1-17.2-3.8-22.5-10.3zM215.9 81.4c0-16.2 12.4-28.1 28.4-28.1 11.8 0 21.3 6.6 25.3 16.1l-7.6 3.2c-3.4-7.5-9.4-11.8-17.9-11.8-11.4 0-19.8 9.2-19.8 20.6 0 11.4 8.6 20.6 20.2 20.6 9 0 14.8-5.4 17.9-12.6l7.7 3.2c-4.3 9.9-12.9 16.9-25.8 16.9-16.5 0-28.4-12.5-28.4-28.1zM276.5 29.4h8.2v32.8c3.8-5.4 10.3-9 18.4-9 14.5 0 23.5 9.5 23.5 25.1v30.1h-8.4V78.3c0-10.5-5.4-17.5-16.2-17.5-9.9 0-17.1 7.8-17.1 17.6v30h-8.3v-79zM332 81.4c0-15.9 12.4-28.1 28-28.1s28.1 12.2 28.1 28.1c0 15.9-12.6 28.1-28.1 28.1-15.6 0-28-12.2-28-28.1zm47.7 0c0-11.4-8.7-20.6-19.7-20.6s-19.6 9.2-19.6 20.6c0 11.4 8.6 20.6 19.6 20.6 11.1-.1 19.7-9.3 19.7-20.6zM392.6 81.4c0-15.9 12.5-28.1 28-28.1 15.6 0 28.1 12.2 28.1 28.1 0 15.9-12.6 28.1-28.1 28.1-15.6 0-28-12.2-28-28.1zm47.7 0c0-11.4-8.7-20.6-19.7-20.6S401 70 401 81.4c0 11.4 8.6 20.6 19.6 20.6 11.1-.1 19.7-9.3 19.7-20.6zM455.5 29.4h8.4v79h-8.4v-79zM474.2 54.3h8.3v7.8c2.9-5 8.1-7.8 15-7.8h6.7v7.8h-6.7c-10.9 0-14.9 5.7-14.9 18.3v28h-8.4V54.3zM510.9 84.4V54.3h8.4v30.1c0 10.5 5.4 17.5 16.2 17.5 9.9 0 17.1-7.8 17.1-17.6v-30h8.3v54.1h-8.2v-8c-3.8 5.5-10.2 9.1-18 9.1-15.7 0-23.8-9.5-23.8-25.1zM569.7 54.3h8.2v8c3.8-5.5 10.3-9.1 18.4-9.1 14.5 0 23.5 9.5 23.5 25.1v30.1h-8.4V78.3c0-10.5-5.4-17.5-16.2-17.5-9.9 0-17.1 7.8-17.1 17.6v30h-8.3V54.3zM627.6 54.3h8.2v8c3.8-5.5 10.3-9.1 18.4-9.1 14.5 0 23.5 9.5 23.5 25.1v30.1h-8.4V78.3c0-10.5-5.4-17.5-16.2-17.5-9.9 0-17.1 7.8-17.1 17.6v30h-8.3V54.3zM683.2 81.8c0-16.2 11.8-28.6 28-28.6 15.6 0 27.7 10.7 27.7 27.3v3.6h-47.6c1.1 10.7 9.5 18 20.4 18 8.8 0 14.9-4.5 18.3-11.2l7.3 3.6c-5 9.4-13.4 15-25.5 15-17.3 0-28.6-11.8-28.6-27.7zm8.6-5.4h38.6c-1.5-9.7-8.7-15.7-19.2-15.7-9.7 0-17.2 6.6-19.4 15.7zM744.9 54.3h8.3v7.8c2.9-5 8.1-7.8 15-7.8h6.7v7.8h-6.7c-10.9 0-14.9 5.7-14.9 18.3v28h-8.4V54.3z"/></g></svg>