<svg id="Layer_1" xmlns="http://www.w3.org/2000/svg" viewBox="0 0 220 220"><style>.st0{fill:none}.st1{fill:#eec84c}.st2{fill:#ebe9d3}.st3{fill:#454c51}.st4{fill:#df5b49}.st5{fill:#f89e3d}.st6{fill:#5ecc66}</style><path class="st0" d="M66.3 12.7c-.4-.3-.8-.7-1.2-1.2-.3.4-.7.8-1.2 1.2.4.3.8.7 1.2 1.2.4-.5.7-.9 1.2-1.2zM195 80.4c.4.3.8.7 1.2 1.2.3-.4.7-.8 1.2-1.2-.4-.3-.8-.7-1.2-1.2-.4.4-.8.9-1.2 1.2zM26.7 56.9c-.9 1.3-2 2.6-3.5 3.6 1.3.9 2.6 2 3.6 3.5.9-1.3 2-2.6 3.5-3.6-1.3-.9-2.6-2.1-3.6-3.5zM183 176.6z"/><path class="st1" d="M158.8 42.7c-4.8-1.1-28.6-5.4-48.2 6.6C95.5 58.6 87.5 60 83.7 59.7l12.9 48.5c3.8.3 18 .5 29.5-9.5 12.3-10.7 36.6-5.4 44.4-3.3l-11.7-52.7zm-43 13c.4-2.8 2.2-5.1 4.9-6.3l.8-.3.7.5c2.3 1.8 3.5 4.6 3.1 7.4-.4 2.8-2.2 5.1-4.9 6.3l-.8.3-.7-.5c-2.3-1.8-3.5-4.6-3.1-7.4zm24.9 25.9c-1.7 3.1-4.2 5-7.2 5.4-.7.1-1.8.3-2.2.4-.4.3-1.3.9-1.9 1.3-1.6 1.1-3.4 1.7-5.4 1.7-1.1 0-2.3-.2-3.5-.6-3.2-1-6.1-3.2-8.3-6.2-2.2-3-3.4-6.5-3.4-9.8 0-3.5 1.4-6.4 3.8-8.2 2.6-1.9 6-2.2 9.5-1 1.6-3.3 4.3-5.5 7.4-5.9 6-.9 11.8 4.8 12.9 12.6.4 3.7-.2 7.4-1.7 10.3z"/><path class="st2" d="M106.2 156.1l-.7-2.9L76.8 46.4l-6.4 1.7 28.7 107 .8 2.9.5 1.7 6.3-1.7z"/><path class="st3" d="M165.1 161.8c-17.7-10.7-38-13.4-56.7-9.3l-11.1-41.3c.6 0 1.3.1 2.1.1 6.2 0 18.3-1.3 28.6-10.3 13.3-11.5 43.7-2.1 44-2 .5.2 1.1 0 1.4-.3.4-.4.6-.9.4-1.4l-12.3-56.1c-.1-.5-.5-1-1.1-1.1-1.1-.3-28.4-7.3-51.3 6.7-19.4 11.9-25.7 10-26.5 9.7l-3.3-12.3c-.2-.8-1-1.3-1.8-1l-9.3 2.5c-.4.1-.7.4-.9.7-.2.3-.2.7-.1 1.1l29.1 108.8c-15.4 6.1-28.9 17-38.1 32.3-3.7 6.1-6.4 12.5-8.3 19.1l3.4-.8c1.8-5.8 4.3-11.5 7.4-16.8 8.7-14.5 21.7-25 36.3-30.9l.8 2.8c.2.7.8 1.1 1.4 1.1.1 0 .3 0 .4-.1l9.3-2.5c.4-.1.7-.4.9-.7.2-.3.2-.7.1-1.1l-.9-3.2c18-3.9 37.4-1.3 54.4 8.9 6 3.6 11.4 8 16.1 13 .4.4.8.8 1.1 1.2l2.2-2c-4.9-5.7-10.9-10.7-17.7-14.8zm-58.4-3.8l-6.4 1.7-.5-1.7-.8-2.9-28.7-107 6.4-1.7 28.6 106.8.8 2.9.6 1.9zm4-108.7c19.6-12 43.4-7.6 48.2-6.6l11.6 52.8c-7.8-2.1-32-7.5-44.4 3.3-11.5 10-25.7 9.8-29.5 9.5L83.7 59.7c3.8.3 11.8-1.1 27-10.4zM163.5 188.2c-5.3 0-9.6 4.3-9.6 9.6s4.3 9.6 9.6 9.6 9.6-4.3 9.6-9.6c-.1-5.3-4.3-9.6-9.6-9.6zm0 16.2c-3.6 0-6.6-3-6.6-6.6 0-3.6 3-6.6 6.6-6.6s6.6 3 6.6 6.6c0 3.6-3 6.6-6.6 6.6z"/><path class="st3" d="M118.8 169.1c-7.1 0-12.8 5.7-12.8 12.8s5.7 12.8 12.8 12.8c7.1 0 12.8-5.7 12.8-12.8s-5.8-12.8-12.8-12.8zm0 22.5c-5.4 0-9.8-4.4-9.8-9.8s4.4-9.8 9.8-9.8 9.8 4.4 9.8 9.8-4.4 9.8-9.8 9.8zM86.8 197.8c-5.3 0-9.6 4.3-9.6 9.6s4.3 9.6 9.6 9.6 9.6-4.3 9.6-9.6-4.3-9.6-9.6-9.6zm0 16.2c-3.6 0-6.6-3-6.6-6.6 0-3.6 3-6.6 6.6-6.6 3.6 0 6.6 3 6.6 6.6 0 3.6-2.9 6.6-6.6 6.6zM120.4 89.9c1.2.4 2.4.6 3.5.6 2 0 3.9-.6 5.4-1.7.6-.4 1.5-1 1.9-1.3.5-.1 1.6-.3 2.2-.4 3-.4 5.5-2.4 7.2-5.4 1.6-2.9 2.1-6.6 1.6-10.3-1.1-7.8-6.9-13.4-12.9-12.6-3.1.5-5.8 2.6-7.4 5.9-3.5-1.2-6.9-.9-9.5 1-2.4 1.8-3.8 4.7-3.8 8.2 0 3.3 1.2 6.8 3.4 9.8 2.3 3 5.2 5.2 8.4 6.2zm-6.2-21.8c1-.8 2.3-1.1 3.7-1.1 1.3 0 2.8.3 4.2 1l1.5.7.6-1.6c1.1-3.1 3.2-5.1 5.7-5.4 4.4-.6 8.6 3.9 9.5 10.1.4 3.1 0 6.1-1.3 8.4-1.2 2.2-3 3.6-5 3.9-1 .1-2.7.5-2.7.5l-.3.1-.2.2s-1.4.9-2.3 1.5c-1.7 1.2-3.9 1.5-6.3.7-2.6-.8-5-2.6-6.8-5.1-1.8-2.5-2.8-5.4-2.8-8.1-.1-2.5.9-4.6 2.5-5.8z"/><path class="st3" d="M118.9 63.1l.7.5.8-.3c2.7-1.1 4.6-3.5 4.9-6.3.4-2.8-.8-5.6-3.1-7.4l-.7-.5-.8.3c-2.7 1.1-4.6 3.5-4.9 6.3-.4 2.8.8 5.6 3.1 7.4zm-.2-7c.2-1.5 1-2.7 2.3-3.5 1 1.1 1.5 2.6 1.3 4-.2 1.5-1 2.7-2.3 3.5-1-1.1-1.5-2.5-1.3-4zM57.4 14.9c.6 0 5.4.2 5.4 5.4 0 1.2 1 2.2 2.2 2.2 1.2 0 2.2-1 2.2-2.2 0-.6.2-5.4 5.4-5.4 1.2 0 2.2-1 2.2-2.2s-1-2.2-2.2-2.2c-.6 0-5.4-.2-5.4-5.4 0-1.2-1-2.2-2.2-2.2-1.2 0-2.2 1-2.2 2.2 0 .6-.2 5.4-5.4 5.4-1.2 0-2.2 1-2.2 2.2s1 2.2 2.2 2.2zm7.7-3.4l1.2 1.2-1.2 1.2-1.2-1.2 1.2-1.2zM203.8 78.2c-.6 0-5.4-.2-5.4-5.4 0-1.2-1-2.2-2.2-2.2s-2.2 1-2.2 2.2c0 .6-.2 5.4-5.4 5.4-1.2 0-2.2 1-2.2 2.2s1 2.2 2.2 2.2c.6 0 5.4.2 5.4 5.4 0 1.2 1 2.2 2.2 2.2s2.2-1 2.2-2.2c0-.6.2-5.4 5.4-5.4 1.2 0 2.2-1 2.2-2.2s-.9-2.2-2.2-2.2zm-7.6 3.4l-1.2-1.2 1.2-1.2 1.2 1.2c-.5.4-.9.8-1.2 1.2zM38.2 58.1c-.4 0-9.2-.1-9.2-9.1 0-1.2-1-2.2-2.2-2.2-1.2 0-2.2 1-2.2 2.2 0 .4-.1 9.1-9.1 9.1-1.2 0-2.2 1-2.2 2.2s1 2.2 2.2 2.2c.4 0 9.1.1 9.1 9.1 0 1.2 1 2.2 2.2 2.2 1.2 0 2.2-1 2.2-2.2 0-.4.1-9.1 9.1-9.1 1.2 0 2.2-1 2.2-2.2s-.9-2.2-2.1-2.2zm-11.3 5.8c-1-1.5-2.2-2.6-3.6-3.5 1.5-1 2.6-2.2 3.5-3.6 1 1.5 2.2 2.6 3.6 3.5-1.6 1-2.7 2.2-3.5 3.6z"/><path class="st4" d="M121.3 87.1c2.4.7 4.7.5 6.3-.7.8-.6 2.3-1.5 2.3-1.5l.2-.2.3-.1s1.7-.3 2.7-.5c2-.3 3.8-1.7 5-3.9 1.3-2.4 1.7-5.4 1.3-8.4-.9-6.2-5.2-10.7-9.5-10.1-2.5.4-4.6 2.4-5.7 5.4l-.6 1.6-1.5-.7c-1.4-.7-2.9-1-4.2-1-1.4 0-2.7.4-3.7 1.1-1.7 1.2-2.6 3.3-2.6 5.8 0 2.7 1 5.6 2.8 8.1 1.9 2.5 4.3 4.3 6.9 5.1z"/><g><circle class="st5" cx="163.5" cy="197.8" r="6.6"/><path class="st5" d="M118.8 172c-5.4 0-9.8 4.4-9.8 9.8s4.4 9.8 9.8 9.8 9.8-4.4 9.8-9.8-4.4-9.8-9.8-9.8z"/><circle class="st5" cx="86.8" cy="207.4" r="6.6"/></g><path class="st6" d="M122.4 56.6c.2-1.5-.3-2.9-1.3-4-1.3.8-2.1 2.1-2.3 3.5-.2 1.5.3 2.9 1.3 4 1.2-.8 2.1-2 2.3-3.5z"/></svg>